<svg id="Layer_1" height="512" viewBox="0 0 64 64" width="512" xmlns="http://www.w3.org/2000/svg" data-name="Layer 1"><path d="m51 9v17.32a47 47 0 0 1 -19 3.68 47 47 0 0 1 -19-3.68v-23.32a1 1 0 0 1 1-1h30z" fill="#cce2ff"/><path d="m44 2v6a1 1 0 0 0 1 1h6z" fill="#b8cbe6"/><circle cx="32" cy="17" fill="#44a649" r="9"/><path d="m51.64 48.2a1 1 0 0 0 1.39.48l6-2.94-7.62-15.42-6 2.94a1 1 0 0 0 -.41 1.39l.61 1.25c-1.43.5-4.3.65-9.76-1.56-9.3-3.78-14.23 8-14.23 9.78s5.21 2.23 8.28-3.21l16.85 10.58a10.52 10.52 0 0 1 4.31-4.49z" fill="#2970cc"/><path d="m47.17 51.76-17.3-10.85-5.87-2.22a11.45 11.45 0 0 1 -4.42-2.07l.18-.3a1.05 1.05 0 0 0 -.38-1.42l-5.78-3.33-8.6 14.88 5.78 3.33a1 1 0 0 0 1.41-.38l.27-.47 3.54 2.63 13.62 8.06 3.38 2.05a2 2 0 0 0 3.12-1.67 2 2 0 0 0 -.94-1.68l1.58.95a2 2 0 0 0 2.6-.35 2 2 0 0 0 -.48-3l1.6 1a2 2 0 0 0 2.6-.35 2 2 0 0 0 -.47-3l2.46 1.48a2 2 0 0 0 3.07-1.65 2 2 0 0 0 -.97-1.64z" fill="#e65c62"/><path d="m19.57 36.62.01.01v-.01z" fill="#ffd299"/><path d="m47.17 51.76-17.3-10.85-5.87-2.22a11.46 11.46 0 0 1 -4.42-2.06l-7.12 12.31 3.54 2.62 13.62 8.06 3.48 2.1a2 2 0 0 0 2.06-3.37l1.67 1a2 2 0 0 0 2-3.37l1.69 1a2 2 0 1 0 2-3.37l2.53 1.52a2 2 0 0 0 2.71-.67 2 2 0 0 0 .29-1 2 2 0 0 0 -.88-1.7z" fill="#ffd299"/><g fill="#e6b373"><path d="m36.34 54.44 4.27 2.56a1.93 1.93 0 0 0 1.93 0l-5.69-3.4z"/><path d="m39.76 50.76-.51.85 5.89 3.53a2 2 0 0 0 2 0z"/><path d="m32.61 56.8 4.29 2.58a2 2 0 0 0 1.92 0l-5.7-3.38z"/></g><rect fill="#ffc680" height="5.92" rx="1.75" transform="matrix(.824 .567 -.567 .824 32.99 -.7)" width="3.95" x="15.64" y="49.77"/><rect fill="#ffc680" height="6.9" rx="1.75" transform="matrix(.824 .567 -.567 .824 34.65 -2.37)" width="3.95" x="19.17" y="51.11"/><rect fill="#ffc680" height="5.92" rx="1.75" transform="matrix(.824 .567 -.567 .824 36.31 -4.05)" width="3.95" x="22.7" y="53.43"/><path d="m53.06 43.62h1.97v2.07h-1.97z" fill="#1258b3" transform="matrix(.897 -.441 .441 .897 -14.16 28.44)"/><path d="m45.58 35.9c-1.43.5-4.3.65-9.76-1.56-9.3-3.78-14.23 8-14.23 9.78s5.21 2.23 8.28-3.21l16.88 10.58a10.52 10.52 0 0 1 4.31-4.49z" fill="#ffc680"/><path d="m47.36 50.52-.48-.3-6.69-4.22a9.42 9.42 0 0 0 1.26-1 7.72 7.72 0 0 0 1.2-1.49l-.86-.51a6.69 6.69 0 0 1 -1.21 1.44 8.75 8.75 0 0 1 -1.31 1l-9.27-5.8c-2.89 5.12-7.66 5.12-8.23 3.54a3.79 3.79 0 0 0 -.18.94c0 1.88 5.21 2.23 8.28-3.21l8.24 5.16 1 .63 7.65 4.8c.24-.36.39-.68.6-.98z" fill="#e6a85c"/><rect fill="#ffc680" height="4.93" rx="1.75" transform="matrix(.824 .567 -.567 .824 38.33 -5.27)" width="3.95" x="25.67" y="56.57"/><path d="m30.06 21.54a1.49 1.49 0 0 1 -1.06-.44l-2.48-2.48 2.12-2.12 1.42 1.41 5.3-5.3 2.12 2.12-6.36 6.37a1.53 1.53 0 0 1 -1.06.44z" fill="#f2f2f2"/></svg>