<svg id="Layer_1" height="512" viewBox="0 0 512 512" width="512" xmlns="http://www.w3.org/2000/svg"><g><path d="m441.29 278.95c-11.23-11.23-29.44-11.23-40.68 0l-48.54 48.54c-4.39 4.39-10.33 6.85-16.54 6.85h-63.12c-5.26 0-10.01-2.99-12.44-7.66-11.78-22.56-35.39-37.96-62.6-37.96-22.03 0-41.7 10.09-54.64 25.9s-72.57 72.57-72.57 72.57c-10.5 10.5-10.5 27.53 0 38.03l41.73 41.73c11.52 11.52 30.55 10.23 40.41-2.73l36.28-47.67c2.97-3.9 7.58-6.19 12.48-6.19h136.46c8.34 0 16.34-3.31 22.24-9.21l81.52-81.52c11.23-11.23 11.23-29.44 0-40.68z" fill="#f9ded7"/><path d="m130.9 487.32c-10.41 0-20.44-4.13-27.85-11.54l-41.73-41.73c-7.44-7.44-11.54-17.33-11.54-27.85s4.1-20.41 11.54-27.85l72.15-72.15c15.85-19.06 39.11-29.98 63.9-29.98 31.06 0 59.29 17.12 73.68 44.68.24.46.72.94 1.36.94h63.12c2.91 0 5.64-1.13 7.7-3.19l48.54-48.54c7.79-7.79 18.16-12.09 29.18-12.09s21.38 4.29 29.18 12.09 12.09 18.16 12.09 29.18-4.29 21.38-12.09 29.18l-81.52 81.53c-8.3 8.3-19.34 12.87-31.08 12.87h-136.46c-.99 0-1.94.47-2.54 1.26l-36.29 47.67c-6.89 9.05-17.34 14.68-28.69 15.44-.89.06-1.77.09-2.66.09zm66.47-186.11c-17.48 0-33.88 7.77-44.97 21.32-.26.32-.54.63-.83.92l-72.57 72.57c-5.61 5.61-5.61 14.74 0 20.35l41.73 41.73c2.98 2.98 6.94 4.46 11.15 4.18s7.93-2.29 10.48-5.64l36.28-47.67c5.3-6.96 13.68-11.12 22.43-11.12h136.46c5.06 0 9.82-1.97 13.4-5.55l81.52-81.52c3.07-3.07 4.76-7.16 4.76-11.5s-1.69-8.43-4.76-11.5c-6.34-6.34-16.66-6.34-23 0l-48.54 48.54c-6.78 6.78-15.79 10.51-25.38 10.51h-63.12c-9.88 0-18.89-5.51-23.52-14.37-10.06-19.27-29.81-31.25-51.52-31.25z" fill="#e5bcb1"/></g><g><path d="m209.01 366.33h89.45c15.89 0 28.76-12.88 28.76-28.76 0-15.89-12.88-28.76-28.76-28.76h-52.65" fill="#f9ded7"/><path d="m298.46 378.83h-89.45c-6.9 0-12.5-5.6-12.5-12.5s5.6-12.5 12.5-12.5h89.45c8.97 0 16.26-7.3 16.26-16.26s-7.3-16.26-16.26-16.26h-52.65c-6.9 0-12.5-5.6-12.5-12.5s5.6-12.5 12.5-12.5h52.65c22.75 0 41.26 18.51 41.26 41.26s-18.51 41.26-41.26 41.26z" fill="#e5bcb1"/></g><g><g><path d="m253.8 37.18s6.05 27.09 38.53 43.33c20.58 10.29 38.43 25.53 43.77 45.35 5.72 21.23-2.73 54.31-36.34 62.43-67.17 16.23-112.92-92.09-45.96-151.12z" fill="#75d165"/><path d="m286.3 202.43c-11.38 0-22.47-2.91-32.71-8.64-13.6-7.62-25.07-19.86-33.15-35.39-10.28-19.75-14.11-42.99-10.8-65.42 3.73-25.24 16.14-47.78 35.88-65.18 3.35-2.95 7.99-4.02 12.23-2.6 4.21 1.42 7.33 4.84 8.23 9.2.41 1.59 6.1 22.02 31.94 34.93 34.29 17.14 46.25 38.44 50.25 53.28 4.37 16.21 1.69 35.37-6.98 50-8.39 14.15-21.7 23.78-38.49 27.83-5.49 1.33-10.97 1.98-16.39 1.98zm-36.08-143.21c-21.64 28.4-19.96 63.88-7.6 87.64 11.74 22.56 29.14 30.46 44.23 30.46 3.48 0 6.83-.42 9.97-1.18 10.23-2.47 17.92-7.95 22.86-16.28 5.28-8.9 6.98-20.97 4.35-30.75-3.77-13.99-17.01-27.29-37.29-37.42-18.73-9.36-29.95-22.01-36.52-32.47z" fill="#52b047"/></g><g><g><path d="m390.71 65.75s-17.03 27.45-58.96 32.85c-26.56 3.42-52.02 13.32-65.49 33.06-14.42 21.14-17.82 60.74 16 82.55 67.6 43.59 159.41-57.91 108.45-148.46z" fill="#52b047"/><path d="m316.92 237.14c-14.58 0-28.69-4.2-41.44-12.42-16.42-10.59-27.05-25.81-30.73-44.03-3.82-18.88.46-40.37 11.18-56.07 9.85-14.43 30.72-32.81 74.22-38.41 15.1-1.94 28.23-7.27 39.03-15.84 7.46-5.92 10.88-11.15 10.91-11.2 2.33-3.76 6.51-6 10.89-5.91 4.42.09 8.46 2.52 10.63 6.37 14.79 26.27 19.7 55.32 14.22 84-4.88 25.51-17.79 49.17-36.34 66.65-14.54 13.69-31.47 22.56-48.95 25.66-4.56.81-9.11 1.21-13.61 1.21zm70.25-149.24c-10.88 9.26-28.38 19.82-53.83 23.1-26.76 3.44-46.92 13.29-56.76 27.71-6.94 10.17-9.82 24.7-7.32 37.02 2.35 11.62 9 21.03 19.78 27.98 26.67 17.2 55.36 5.27 73.3-11.63 23.73-22.35 39.7-62.84 24.83-104.17z" fill="#35812c"/></g><path d="m260.35 271.99c-6.7 0-12.25-5.31-12.48-12.06-.03-.79-.56-19.48 8.85-42.45 8.6-20.99 27.5-50.03 68.7-69.14 6.27-2.9 13.69-.18 16.6 6.08s.18 13.69-6.08 16.6c-64.36 29.86-63.1 87.46-63.08 88.04.24 6.9-5.16 12.69-12.05 12.93-.15 0-.3 0-.45 0z" fill="#35812c"/></g></g></svg>