<svg id="Capa_1" enable-background="new 0 0 512 512" height="512" viewBox="0 0 512 512" width="512" xmlns="http://www.w3.org/2000/svg"><g><path d="m156.241 96.522c-12.54 0-23.951 4.899-32.443 12.873-8.492-7.974-19.903-12.873-32.443-12.873h-8.557v30h8.557c9.618 0 17.443 7.825 17.443 17.443h30c0-9.618 7.825-17.443 17.443-17.443h8.557v-30z" fill="#575f64"/><path d="m253.659 36.823c-12.54 0-23.951 4.899-32.443 12.873-8.492-7.974-19.903-12.873-32.443-12.873h-8.557v30h8.557c9.618 0 17.443 7.825 17.443 17.443h30c0-9.618 7.825-17.443 17.443-17.443h8.557v-30z" fill="#575f64"/><g><g><path d="m414.181 146.353c-26.755 0-48.521-21.767-48.521-48.521 0-26.755 21.767-48.521 48.521-48.521 26.755 0 48.521 21.767 48.521 48.521.001 26.755-21.766 48.521-48.521 48.521z" fill="#ffdd46"/></g><g><path d="m414.181 146.353c0-50.427 0-61.28 0-97.043 26.755 0 48.521 21.767 48.521 48.521.001 26.756-21.766 48.522-48.521 48.522z" fill="#fcbe00"/></g></g><g><g><path d="m399.181 292.8h30v157.48h-30z" fill="#b97c14"/></g><g><path d="m414.181 292.8h15v157.48h-15z" fill="#8d5d0d"/></g><path d="m504.981 378.099-47.707-75.055h21.571l-64.664-101.732-64.664 101.732h21.572l-47.708 75.055z" fill="#00c100"/><g><path d="m457.274 303.044h21.571l-64.664-101.732v176.787h90.8z" fill="#080"/></g><path d="m504.981 378.099-47.707-75.055h-86.185l-47.708 75.055z" fill="#080"/><path d="m504.981 378.099-47.707-75.055h-43.093v75.055z" fill="#006c00"/></g><g><g><path d="m82.819 292.8h30v157.48h-30z" fill="#b97c14"/></g><g><path d="m97.819 292.8h15v157.48h-15z" fill="#8d5d0d"/></g><path d="m188.619 378.099-47.707-75.055h21.571l-64.664-101.732-64.664 101.732h21.571l-47.707 75.055z" fill="#00c100"/><g><path d="m140.912 303.044h21.571l-64.664-101.732v176.787h90.8z" fill="#080"/></g><path d="m188.619 378.099-47.707-75.055h-86.186l-47.707 75.055z" fill="#080"/><path d="m188.619 378.099-47.707-75.055h-43.093v75.055z" fill="#006c00"/></g><g><g><path d="m241 292.8h30v157.48h-30z" fill="#b97c14"/></g><g><path d="m256 292.8h15v157.48h-15z" fill="#8d5d0d"/></g><path d="m367.263 378.099-58.459-91.97h26.433l-79.237-124.659-79.237 124.659h26.433l-58.459 91.97z" fill="#00c100"/><g><path d="m308.804 286.129h26.433l-79.237-124.659v216.629h111.263z" fill="#080"/></g><path d="m367.263 378.099-58.459-91.97h-105.608l-58.459 91.97z" fill="#080"/><path d="m367.263 378.099-58.459-91.97h-52.804v91.97z" fill="#006c00"/></g><g><path d="m0 445.177h512v30h-512z" fill="#080"/></g><g><path d="m256 445.177h256v30h-256z" fill="#006c00"/></g></g></svg>