<?xml version="1.0" encoding="UTF-8"?><svg id="_88ce59e9-c4b8-4d1d-9d7a-ce0190159aa8" xmlns="http://www.w3.org/2000/svg" xmlns:xlink="http://www.w3.org/1999/xlink" viewBox="0 0 781.43 756.44"><defs><linearGradient id="linear-gradient" x1="116.72" y1="520.02" x2="116.72" y2="751.8" gradientTransform="translate(0 758) scale(1 -1)" gradientUnits="userSpaceOnUse"><stop offset="0" stop-color="gray" stop-opacity=".25"/><stop offset=".54" stop-color="gray" stop-opacity=".12"/><stop offset="1" stop-color="gray" stop-opacity=".1"/></linearGradient><linearGradient id="linear-gradient-2" x1="385.08" y1="267.79" x2="385.08" y2="499.57" gradientTransform="translate(0 758) scale(1 -1)" gradientUnits="userSpaceOnUse"><stop offset="0" stop-color="gray" stop-opacity=".25"/><stop offset=".54" stop-color="gray" stop-opacity=".12"/><stop offset="1" stop-color="gray" stop-opacity=".1"/></linearGradient><linearGradient id="linear-gradient-3" x1="384.97" y1="525.71" x2="384.97" y2="757.49" gradientTransform="translate(0 758) scale(1 -1)" gradientUnits="userSpaceOnUse"><stop offset="0" stop-color="gray" stop-opacity=".25"/><stop offset=".54" stop-color="gray" stop-opacity=".12"/><stop offset="1" stop-color="gray" stop-opacity=".1"/></linearGradient><linearGradient id="linear-gradient-4" x1="661.23" y1="526.22" x2="661.23" y2="758" gradientTransform="translate(0 758) scale(1 -1)" gradientUnits="userSpaceOnUse"><stop offset="0" stop-color="gray" stop-opacity=".25"/><stop offset=".54" stop-color="gray" stop-opacity=".12"/><stop offset="1" stop-color="gray" stop-opacity=".1"/></linearGradient><linearGradient id="linear-gradient-5" x1="115.89" y1="275.38" x2="115.89" y2="507.16" gradientTransform="translate(0 758) scale(1 -1)" gradientUnits="userSpaceOnUse"><stop offset="0" stop-color="gray" stop-opacity=".25"/><stop offset=".54" stop-color="gray" stop-opacity=".12"/><stop offset="1" stop-color="gray" stop-opacity=".1"/></linearGradient><linearGradient id="linear-gradient-6" x1="665.55" y1="262.53" x2="665.55" y2="494.31" gradientTransform="translate(0 758) scale(1 -1)" gradientUnits="userSpaceOnUse"><stop offset="0" stop-color="gray" stop-opacity=".25"/><stop offset=".54" stop-color="gray" stop-opacity=".12"/><stop offset="1" stop-color="gray" stop-opacity=".1"/></linearGradient><linearGradient id="linear-gradient-7" x1="116.72" y1="14.85" x2="116.72" y2="246.63" gradientTransform="translate(0 758) scale(1 -1)" gradientUnits="userSpaceOnUse"><stop offset="0" stop-color="gray" stop-opacity=".25"/><stop offset=".54" stop-color="gray" stop-opacity=".12"/><stop offset="1" stop-color="gray" stop-opacity=".1"/></linearGradient><linearGradient id="linear-gradient-8" x1="392.03" y1="1.56" x2="392.03" y2="233.34" gradientTransform="translate(0 758) scale(1 -1)" gradientUnits="userSpaceOnUse"><stop offset="0" stop-color="gray" stop-opacity=".25"/><stop offset=".54" stop-color="gray" stop-opacity=".12"/><stop offset="1" stop-color="gray" stop-opacity=".1"/></linearGradient></defs><g opacity=".5"><circle cx="116.72" cy="122.09" r="115.89" fill="url(#linear-gradient)"/></g><circle cx="116.72" cy="121.46" r="113.44" fill="#b9c3cf"/><path d="m117.04,235.22c22.17.04,43.86-6.45,62.36-18.66-4.18-22.84-20.09-24.15-20.09-24.15h-87.71s-15,1.23-19.7,22.25c19.07,13.41,41.82,20.6,65.14,20.56Z" fill="#1c3458"/><circle cx="115.85" cy="118.96" r="50.29" fill="#333"/><path d="m98.18,164.57h35.09v28.07c0,9.69-7.85,17.54-17.54,17.54h0c-9.69,0-17.54-7.85-17.54-17.54h0v-28.07h-.01Z" isolation="isolate" opacity=".1"/><path d="m101.53,163.27h28.39c1.85,0,3.35,1.5,3.35,3.35h0v24.72c0,9.69-7.85,17.54-17.54,17.54h0c-9.69,0-17.54-7.85-17.54-17.54h0v-24.72c0-1.85,1.49-3.34,3.34-3.35Z" fill="#be7c5e"/><path d="m98.25,177.82c11.31,4.23,23.76,4.26,35.09.1v-4.31h-35.09v4.21Z" isolation="isolate" opacity=".1"/><circle cx="115.85" cy="129.88" r="50.29" fill="#be7c5e"/><path d="m85.38,109.14c.59-2.17,1.33-4.56,3.28-5.69,1.54-.9,3.45-.76,5.23-.67,13.9.76,27.68-2.41,41.2-5.72,7.73-1.89,16-4.19,21-10.42s-1.52-25.81-9.13-28.12c-5-1.53-10.8,1.32-15.54-.92-2.11-1-3.66-2.87-5.48-4.33-3.73-3-8.52-4.21-13.16-5.35-5.42-1.34-11.28-2.65-16.43-.5-4,1.66-6.92,5.17-10.71,7.25-7.21,4-16,2.14-24.26,2.12-2.79,0-6.12.56-7.23,3.12-.75,1.74-.15,3.72-.07,5.61.24,6-4.71,10.67-8.86,15s-8.07,10.51-5.45,15.89c1,2.05,2.83,3.6,3.87,5.63,1.79,3.52.89,7.77,1.54,11.66.65,2.95,1.75,5.79,3.27,8.4,3.08,6,18.55,38.3,25.66,30.09,3.44-4,4-15.56,5.39-20.76,1.92-7.47,3.88-14.9,5.88-22.29Z" fill="#333"/><ellipse cx="80.07" cy="128.05" rx="4.68" ry="8.77" fill="#be7c5e"/><g opacity=".5"><circle cx="385.08" cy="374.32" r="115.89" fill="url(#linear-gradient-2)"/></g><circle cx="385.3" cy="373.58" r="113.44" fill="#b9c3cf"/><path d="m385.4,487.47c22.15.03,43.83-6.46,62.32-18.66-4.18-22.84-20.09-24.15-20.09-24.15h-87.68s-15,1.23-19.7,22.25c19.07,13.42,41.83,20.6,65.15,20.56Z" fill="#1c3458"/><circle cx="384.2" cy="371.19" r="54.76" fill="#f46451"/><path d="m366.53,416.8h35.09v28.07c0,9.69-7.85,17.54-17.54,17.54h0c-9.69,0-17.54-7.85-17.54-17.54h0v-28.07h0Z" isolation="isolate" opacity=".1"/><path d="m369.88,415.5h28.39c1.85,0,3.35,1.5,3.35,3.35h0v24.72c0,9.69-7.85,17.54-17.54,17.54h0c-9.69,0-17.54-7.85-17.54-17.54h0v-24.72c0-1.85,1.5-3.35,3.35-3.35h-.01Z" fill="#fda57d"/><path d="m366.6,430.05c11.31,4.23,23.76,4.26,35.09.1v-4.31h-35.09v4.21Z" isolation="isolate" opacity=".1"/><circle cx="384.2" cy="382.11" r="50.29" fill="#fda57d"/><circle cx="384.13" cy="315.49" r="20.24" fill="#f46451"/><circle cx="384.13" cy="295.56" r="13.29" fill="#f46451"/><path d="m375.35,326.59c-9.86-4.42-14.51-15.82-10.55-25.88-.14.28-.28.57-.41.86-4.58,10.2-.02,22.18,10.18,26.76s22.18.02,26.76-10.18c.13-.29.25-.58.37-.88-4.88,9.65-16.48,13.76-26.35,9.33Z" fill="#f46451"/><path d="m348.39,336.37s21.19,43,81,18l-13.92-21.83-24.67-8.86-42.41,12.69Z" isolation="isolate" opacity=".1"/><path d="m348.39,335.73s21.19,43,81,18l-13.92-21.83-24.67-8.86-42.41,12.69Z" fill="#f46451"/><path d="m364.72,320.07c13.04-1.03,26.14-1.03,39.18,0,0,0-28.94,2.69-39.18,0Z" fill="#333"/><path d="m387.17,281.46c-1.01-.04-2.01.04-3,.23h.77c7.33.23,13.08,6.37,12.85,13.7-.2,6.24-4.71,11.49-10.85,12.63,7.33.07,13.33-5.83,13.4-13.16.07-7.33-5.83-13.33-13.16-13.4h-.01Z" fill="#f46451"/><ellipse cx="333.9" cy="382.06" rx="4.68" ry="8.77" fill="#fda57d"/><ellipse cx="434.49" cy="382.06" rx="4.68" ry="8.77" fill="#fda57d"/><polygon points="345.22 337 355.03 331.94 357.24 340.05 351.23 344.14 345.22 337" fill="#f55f44"/><g opacity=".5"><circle cx="384.97" cy="116.4" r="115.89" fill="url(#linear-gradient-3)"/></g><circle cx="384.97" cy="115.77" r="113.44" fill="#b9c3cf"/><path d="m340.72,116.78s-12.86,63.36-19.88,59.85c0,0,67.7,58.48,127.48,0,0,0-10.53-44.65-25.73-59.85h-81.87Z" fill="#333"/><path d="m385.29,229.55c22.17.04,43.86-6.45,62.36-18.66-4.18-22.84-20.09-24.15-20.09-24.15h-87.72s-15,1.23-19.7,22.25c19.07,13.42,41.83,20.6,65.15,20.56Z" fill="#1c3458"/><circle cx="384.09" cy="113.27" r="50.29" fill="#333"/><path d="m366.42,158.88h35.09v28.07c0,9.68-7.83,17.52-17.51,17.54h0c-9.69,0-17.54-7.85-17.54-17.54v-28.07h-.04Z" isolation="isolate" opacity=".1"/><path d="m369.77,157.58h28.39c1.85,0,3.35,1.5,3.35,3.35h0v24.72c0,9.68-7.83,17.52-17.51,17.54h0c-9.69,0-17.54-7.85-17.54-17.54h0v-24.73c0-1.83,1.48-3.32,3.31-3.34Z" fill="#be7c5e"/><path d="m366.49,172.13c11.31,4.23,23.76,4.26,35.09.1v-4.31h-35.09v4.21Z" isolation="isolate" opacity=".1"/><circle cx="384.09" cy="124.18" r="50.29" fill="#be7c5e"/><path d="m336.02,105.08h95.9s-8.19-38.72-44.44-36.25-51.46,36.25-51.46,36.25Z" fill="#333"/><ellipse cx="334.84" cy="122.04" rx="4.68" ry="8.77" fill="#be7c5e"/><ellipse cx="433.08" cy="122.04" rx="4.68" ry="8.77" fill="#be7c5e"/><path d="m336.02,106.38h95.9s-8.19-38.72-44.44-36.25-51.46,36.25-51.46,36.25Z" isolation="isolate" opacity=".1"/><g opacity=".5"><circle cx="661.23" cy="115.89" r="115.89" fill="url(#linear-gradient-4)"/></g><circle cx="661.45" cy="115.14" r="113.44" fill="#b9c3cf"/><path d="m661.55,229.04c22.17.04,43.86-6.45,62.36-18.66-4.19-22.85-20.09-24.16-20.09-24.16h-87.71s-15,1.23-19.7,22.25c19.07,13.42,41.82,20.6,65.14,20.57Z" fill="#1c3458"/><circle cx="660.36" cy="112.75" r="54.76" fill="#704536"/><path d="m642.68,158.36h35.09v28.07c.02,9.69-7.82,17.55-17.51,17.57-.01,0-.02,0-.03,0h0c-9.69,0-17.54-7.85-17.54-17.54v-28.1h-.01Z" isolation="isolate" opacity=".1"/><path d="m646,157.06h28.39c1.85,0,3.35,1.5,3.35,3.35v24.72c0,9.69-7.85,17.54-17.54,17.54h0c-9.69,0-17.54-7.85-17.54-17.54v-24.72c0-1.85,1.5-3.35,3.35-3.35h-.01Z" fill="#fda57d"/><path d="m642.72,171.61c11.31,4.23,23.76,4.26,35.09.1v-4.31h-35.09v4.21Z" isolation="isolate" opacity=".1"/><circle cx="660.36" cy="123.67" r="50.29" fill="#fda57d"/><path d="m624.54,77.93s21.19,43,81,18l-13.92-21.83-24.67-8.86-42.41,12.69Z" isolation="isolate" opacity=".1"/><path d="m624.54,77.3s21.19,43,81,18l-13.92-21.83-24.67-8.86-42.41,12.69Z" fill="#704536"/><path d="m624.35,74.39c1.43-4.42,3.9-8.44,7.2-11.71,9.89-9.78,26.11-11.84,34.43-23,1.79,3.12.7,7.1-2.42,8.88-.19.11-.38.21-.58.3,8-.05,17.21-.75,21.71-7.31,2.27,5.29,1.3,11.42-2.51,15.74,7.06.32,14.6,5.11,15.06,12.17.3,4.7-2.64,9.15-6.51,11.85s-8.53,3.91-13.13,4.91c-13.42,3-62.01,15.41-53.25-11.83Z" fill="#704536"/><path d="m710.65,124.11h-1.33l-25.94,23.11c-25-11.7-43.34,0-43.34,0l-27.2-22.14-2.74.34c.78,27.76,23.92,49.64,51.68,48.86,27.17-.76,48.81-22.97,48.88-50.15v-.02Zm-50.36,31.95c-9.78,0-17.71-2-17.71-4.43s7.93-4.43,17.71-4.43,17.71,2,17.71,4.43-7.93,4.43-17.72,4.43h.01Z" fill="#704536"/><ellipse cx="610.05" cy="123.62" rx="4.68" ry="8.77" fill="#fda57d"/><ellipse cx="710.64" cy="123.62" rx="4.68" ry="8.77" fill="#fda57d"/><g opacity=".5"><circle cx="115.89" cy="366.73" r="115.89" fill="url(#linear-gradient-5)"/></g><circle cx="116.11" cy="365.99" r="113.44" fill="#b9c3cf"/><path d="m116.21,479.88c22.16.03,43.85-6.46,62.35-18.66-4.18-22.84-20.09-24.15-20.09-24.15h-87.75s-15,1.23-19.7,22.25c19.08,13.42,41.86,20.61,65.19,20.56Z" fill="#1c3458"/><circle cx="115.01" cy="363.6" r="54.76" fill="#333"/><path d="m97.34,409.21h35.09v28.07c0,9.69-7.85,17.54-17.54,17.54h0c-9.69,0-17.54-7.85-17.54-17.54h0v-28.07h0Z" isolation="isolate" opacity=".1"/><path d="m100.69,407.91h28.39c1.85,0,3.35,1.5,3.35,3.35h0v24.74c0,9.69-7.85,17.54-17.54,17.54h0c-9.69,0-17.54-7.84-17.55-17.53h0v-24.76c0-1.85,1.5-3.35,3.35-3.35h0Z" fill="#fdb797"/><path d="m97.41,422.46c11.31,4.23,23.76,4.26,35.09.1v-4.34h-35.09v4.24Z" isolation="isolate" opacity=".1"/><circle cx="115.01" cy="374.52" r="50.29" fill="#fdb797"/><path d="m79.2,328.77s21.19,43,81,18l-13.92-21.83-24.67-8.86-42.41,12.69Z" isolation="isolate" opacity=".1"/><path d="m79.2,328.14s21.19,43,81,18l-13.92-21.83-24.67-8.86-42.41,12.69Z" fill="#333"/><path d="m79.01,325.22c1.43-4.42,3.9-8.44,7.2-11.71,9.89-9.78,26.11-11.84,34.43-23,1.79,3.12.7,7.1-2.42,8.88-.19.11-.38.21-.58.3,8-.05,17.21-.75,21.71-7.31,2.27,5.29,1.3,11.42-2.51,15.74,7.06.32,14.6,5.11,15.06,12.17.3,4.7-2.64,9.15-6.51,11.85s-8.54,3.93-13.14,4.95c-13.42,2.98-62,15.39-53.24-11.87Z" fill="#333"/><ellipse cx="64.7" cy="374.47" rx="4.68" ry="8.77" fill="#fdb797"/><ellipse cx="165.29" cy="374.47" rx="4.68" ry="8.77" fill="#fdb797"/><g opacity=".5"><circle cx="665.55" cy="379.58" r="115.89" fill="url(#linear-gradient-6)"/></g><circle cx="665.55" cy="378.95" r="113.44" fill="#b9c3cf"/><path d="m665.87,492.73c22.17.04,43.86-6.45,62.36-18.66-4.18-22.84-20.09-24.15-20.09-24.15h-87.72s-15,1.23-19.7,22.25c19.07,13.42,41.83,20.6,65.15,20.56Z" fill="#1c3458"/><path d="m647,422.06h35.09v28.07c0,9.69-7.85,17.54-17.54,17.54h0c-9.69,0-17.54-7.84-17.55-17.53h0v-28.08h0Z" isolation="isolate" opacity=".1"/><path d="m650.35,420.76h28.39c1.85,0,3.35,1.5,3.35,3.35v24.72c0,9.69-7.85,17.54-17.54,17.54h0c-9.69,0-17.54-7.84-17.55-17.53h0v-24.73c0-1.85,1.5-3.35,3.35-3.35h0Z" fill="#fdb797"/><path d="m647.07,435.31c11.31,4.23,23.76,4.26,35.09.1v-4.31h-35.09v4.21Z" isolation="isolate" opacity=".1"/><circle cx="664.67" cy="387.37" r="50.29" fill="#fdb797"/><ellipse cx="615.42" cy="385.22" rx="4.68" ry="8.77" fill="#fdb797"/><ellipse cx="713.66" cy="385.22" rx="4.68" ry="8.77" fill="#fdb797"/><rect x="634.03" y="387.61" width="21.51" height="10.76" rx="4.35" ry="4.35" fill="none" stroke="#333" stroke-miterlimit="10" stroke-width="2"/><rect x="673.81" y="387.6" width="21.51" height="10.76" rx="4.35" ry="4.35" fill="none" stroke="#333" stroke-miterlimit="10" stroke-width="2"/><path d="m654.72,388.65s6.82-3.7,19.5,0" fill="none" stroke="#333" stroke-miterlimit="10" stroke-width="2"/><path d="m699.44,350.92l12.34,28.67s15.09-19.02-12.34-28.67Z" fill="#858585"/><line x1="695.32" y1="392.99" x2="713.74" y2="376.54" fill="none" stroke="#333" stroke-linecap="round" stroke-linejoin="round" stroke-width="2"/><path d="m629.92,350.92l-12.34,28.67s-15.09-19.02,12.34-28.67Z" fill="#858585"/><line x1="634.03" y1="392.99" x2="615.36" y2="376.54" fill="none" stroke="#333" stroke-linecap="round" stroke-linejoin="round" stroke-width="2"/><g opacity=".5"><circle cx="116.72" cy="627.26" r="115.89" fill="url(#linear-gradient-7)"/></g><circle cx="116.72" cy="626.63" r="113.44" fill="#b9c3cf"/><path d="m179.47,636.83c0,41.78-27.26,88.29-60.89,88.29s-60.86-46.51-60.86-88.29,27.26-63,60.89-63,60.86,21.23,60.86,63Z" fill="#fce792"/><path d="m117.04,740.42c22.17.04,43.86-6.45,62.36-18.66-4.18-22.84-20.09-24.15-20.09-24.15h-87.71s-15,1.23-19.7,22.25c19.07,13.41,41.82,20.6,65.14,20.56Z" fill="#1c3458"/><path d="m98.18,669.74h35.09v28.07c0,9.69-7.85,17.54-17.54,17.54h0c-9.69,0-17.54-7.85-17.54-17.54v-28.07h-.01Z" isolation="isolate" opacity=".1"/><path d="m101.53,668.44h28.39c1.85,0,3.35,1.5,3.35,3.35v24.72c0,9.69-7.85,17.54-17.54,17.54h0c-9.69,0-17.54-7.85-17.54-17.54v-24.72c0-1.85,1.49-3.34,3.34-3.35Z" fill="#fdb797"/><path d="m98.25,682.99c11.31,4.23,23.76,4.26,35.09.1v-4.31h-35.09v4.21Z" isolation="isolate" opacity=".1"/><circle cx="115.85" cy="635.05" r="50.29" fill="#fdb797"/><ellipse cx="66.6" cy="632.9" rx="4.68" ry="8.77" fill="#fdb797"/><ellipse cx="164.84" cy="632.9" rx="4.68" ry="8.77" fill="#fdb797"/><path d="m71.29,607.77s28.43,38.91,93.63,25.62c0,0,7.28-8.86-10.44-36.06s-67.06-22.77-83.19,10.44Z" isolation="isolate" opacity=".1"/><path d="m71.29,607.14s28.43,38.91,93.63,25.62c0,0,7.28-8.86-10.44-36.06s-67.06-22.77-83.19,10.44Z" fill="#fce792"/><g opacity=".5"><circle cx="392.03" cy="640.55" r="115.89" fill="url(#linear-gradient-8)"/></g><circle cx="392.26" cy="639.81" r="113.44" fill="#b9c3cf"/><path d="m454.67,650.99c0,37.74-27.11,56.31-62.32,56.31s-65.16-18.57-65.16-56.31,28.54-68.33,63.74-68.33,63.74,30.56,63.74,68.33Z" fill="#333"/><path d="m392.35,753.7c22.17.04,43.86-6.45,62.37-18.66-4.18-22.84-20.09-24.15-20.09-24.15h-87.72s-15,1.23-19.7,22.25c19.07,13.41,41.82,20.6,65.14,20.56Z" fill="#1c3458"/><path d="m373.49,683h35.09v28.07c.02,9.69-7.82,17.55-17.51,17.57-.02,0-.05,0-.07,0h0c-9.69,0-17.54-7.85-17.54-17.54v-28.1h.03Z" isolation="isolate" opacity=".1"/><path d="m376.83,681.73h28.39c1.85,0,3.35,1.5,3.35,3.35v24.72c0,9.69-7.85,17.54-17.54,17.54h-.03c-9.69,0-17.54-7.85-17.54-17.54v-24.73c0-1.85,1.5-3.35,3.35-3.35h.02Z" fill="#fda57d"/><path d="m373.56,696.28c11.31,4.23,23.76,4.26,35.09.1v-4.31h-35.09v4.21Z" isolation="isolate" opacity=".1"/><circle cx="391.16" cy="648.33" r="50.29" fill="#fda57d"/><path d="m333.2,651.62s31.32-3.8,55-34.16c0,0,31.32,34.48,53.14,30.68,0,0,12.65-13.29,0-26.57s-22.46-30.05-39.22-27.84-37.33,3.16-46.18,11.07-22.74,46.82-22.74,46.82Z" isolation="isolate" opacity=".1"/><path d="m333.2,650.99s31.32-3.8,55-34.16c0,0,31.32,34.48,53.14,30.68,0,0,12.65-13.29,0-26.57s-22.46-30.05-39.22-27.84-37.29,3.12-46.14,11.12-22.78,46.77-22.78,46.77Z" fill="#333"/><ellipse cx="340.85" cy="648.29" rx="4.68" ry="8.77" fill="#fda57d"/><ellipse cx="441.44" cy="648.29" rx="4.68" ry="8.77" fill="#fda57d"/></svg>